<svg width="40" height="40" viewBox="0 0 40 40" fill="none" xmlns="http://www.w3.org/2000/svg">
<path d="M30.0665 22.5832C29.3665 23.2665 28.9665 24.2498 29.0665 25.2998C29.2165 27.0998 30.8665 28.4165 32.6665 28.4165H35.8332V30.3998C35.8332 33.8498 33.0165 36.6665 29.5665 36.6665H12.7332C14.1165 35.4498 14.9998 33.6665 14.9998 31.6665C14.9998 27.9832 12.0165 24.9998 8.33317 24.9998C6.7665 24.9998 5.3165 25.5498 4.1665 26.4665V19.1832C4.1665 15.7332 6.98316 12.9165 10.4332 12.9165H29.5665C33.0165 12.9165 35.8332 15.7332 35.8332 19.1832V21.5832H32.4665C31.5332 21.5832 30.6832 21.9498 30.0665 22.5832Z" stroke="url(#paint0_linear_175_1652)" stroke-width="2.5" stroke-linecap="round" stroke-linejoin="round"/>
<path d="M4.1665 19.1833V13.0667C4.1665 11.0833 5.38316 9.31658 7.23316 8.61658L20.4665 3.61658C22.5332 2.84991 24.7498 4.36663 24.7498 6.58329V12.9166" stroke="url(#paint1_linear_175_1652)" stroke-width="2.5" stroke-linecap="round" stroke-linejoin="round"/>
<path d="M37.5978 23.2837V26.7171C37.5978 27.6338 36.8645 28.3837 35.9312 28.417H32.6645C30.8645 28.417 29.2145 27.1004 29.0645 25.3004C28.9645 24.2504 29.3645 23.267 30.0645 22.5837C30.6812 21.9504 31.5312 21.5837 32.4645 21.5837H35.9312C36.8645 21.6171 37.5978 22.367 37.5978 23.2837Z" stroke="url(#paint2_linear_175_1652)" stroke-width="2.5" stroke-linecap="round" stroke-linejoin="round"/>
<path d="M11.6665 20H23.3332" stroke="url(#paint3_linear_175_1652)" stroke-width="2.5" stroke-linecap="round" stroke-linejoin="round"/>
<path d="M14.9998 31.6667C14.9998 33.6667 14.1165 35.45 12.7332 36.6667C11.5498 37.7 10.0165 38.3333 8.33317 38.3333C4.64984 38.3333 1.6665 35.35 1.6665 31.6667C1.6665 29.5667 2.63317 27.6833 4.1665 26.4667C5.3165 25.55 6.7665 25 8.33317 25C12.0165 25 14.9998 27.9833 14.9998 31.6667Z" stroke="url(#paint4_linear_175_1652)" stroke-width="2.5" stroke-miterlimit="10" stroke-linecap="round" stroke-linejoin="round"/>
<path d="M8.74984 29.5833V32.0833L6.6665 33.3333" stroke="url(#paint5_linear_175_1652)" stroke-width="2.5" stroke-miterlimit="10" stroke-linecap="round" stroke-linejoin="round"/>
<defs>
<linearGradient id="paint0_linear_175_1652" x1="21.6807" y1="25.6758" x2="36.5575" y2="26.6067" gradientUnits="userSpaceOnUse">
<stop stop-color="#6031D9"/>
<stop offset="1" stop-color="#A761FF"/>
</linearGradient>
<linearGradient id="paint1_linear_175_1652" x1="15.5507" y1="11.8864" x2="25.2222" y2="12.4789" gradientUnits="userSpaceOnUse">
<stop stop-color="#6031D9"/>
<stop offset="1" stop-color="#A761FF"/>
</linearGradient>
<linearGradient id="paint2_linear_175_1652" x1="33.7773" y1="25.2548" x2="37.7953" y2="25.4907" gradientUnits="userSpaceOnUse">
<stop stop-color="#6031D9"/>
<stop offset="1" stop-color="#A761FF"/>
</linearGradient>
<linearGradient id="paint3_linear_175_1652" x1="18.1191" y1="20.5372" x2="22.3524" y2="22.8551" gradientUnits="userSpaceOnUse">
<stop stop-color="#6031D9"/>
<stop offset="1" stop-color="#A761FF"/>
</linearGradient>
<linearGradient id="paint4_linear_175_1652" x1="9.04088" y1="32.1631" x2="15.3155" y2="32.4576" gradientUnits="userSpaceOnUse">
<stop stop-color="#6031D9"/>
<stop offset="1" stop-color="#A761FF"/>
</linearGradient>
<linearGradient id="paint5_linear_175_1652" x1="7.81875" y1="31.5979" x2="8.80066" y2="31.6235" gradientUnits="userSpaceOnUse">
<stop stop-color="#6031D9"/>
<stop offset="1" stop-color="#A761FF"/>
</linearGradient>
</defs>
</svg>
