<svg width="16" height="16" viewBox="0 0 16 16" fill="none" xmlns="http://www.w3.org/2000/svg">
<path d="M8.35398 13.6133H4.14065C2.03398 13.6133 1.33398 12.2133 1.33398 10.8067V5.19333C1.33398 3.08667 2.03398 2.38667 4.14065 2.38667H8.35398C10.4607 2.38667 11.1607 3.08667 11.1607 5.19333V10.8067C11.1607 12.9133 10.454 13.6133 8.35398 13.6133Z" stroke="#130A29" stroke-linecap="round" stroke-linejoin="round"/>
<path d="M13.0135 11.4L11.1602 10.1V5.89333L13.0135 4.59333C13.9202 3.96 14.6668 4.34666 14.6668 5.46V10.54C14.6668 11.6533 13.9202 12.04 13.0135 11.4Z" stroke="#130A29" stroke-linecap="round" stroke-linejoin="round"/>
<path d="M7.66602 7.33334C8.2183 7.33334 8.66602 6.88562 8.66602 6.33334C8.66602 5.78105 8.2183 5.33334 7.66602 5.33334C7.11373 5.33334 6.66602 5.78105 6.66602 6.33334C6.66602 6.88562 7.11373 7.33334 7.66602 7.33334Z" stroke="#130A29" stroke-linecap="round" stroke-linejoin="round"/>
</svg>
