<svg width="20" height="20" viewBox="0 0 20 20" fill="none" xmlns="http://www.w3.org/2000/svg">
<path d="M9.37533 5.00023V16.5919C9.37533 17.1836 8.77533 17.5919 8.23366 17.3669C6.68366 16.7169 4.75866 16.1502 3.39199 15.9669L3.13366 15.9336C2.32533 15.8336 1.66699 15.0919 1.66699 14.2836V4.37523C1.66699 3.37523 2.47533 2.56689 3.47533 2.56689H3.53366C5.10033 2.70023 7.40866 3.43356 8.93366 4.25856C9.20866 4.40856 9.37533 4.68356 9.37533 5.00023Z" fill="#6131D8"/>
<path d="M16.525 2.56689H16.475C16.275 2.58356 16.0583 2.60856 15.8333 2.65023C14.8083 2.81689 13.5917 3.16689 12.5 3.60023C11.9833 3.80856 11.5 4.03356 11.075 4.25856C10.8 4.40856 10.625 4.69189 10.625 5.00023V16.5919C10.625 17.1836 11.225 17.5919 11.7667 17.3669C13.3167 16.7169 15.2417 16.1502 16.6083 15.9669L16.8667 15.9336C17.675 15.8336 18.3333 15.0919 18.3333 14.2836V4.37523C18.3333 3.37523 17.525 2.56689 16.525 2.56689ZM16.0583 11.4419C16.0583 11.7669 15.825 11.9086 15.5417 11.7502L14.6583 11.2586C14.5667 11.2086 14.4167 11.2086 14.3167 11.2586L13.4333 11.7502C13.15 11.9086 12.9167 11.7669 12.9167 11.4419V8.88356C12.9167 8.50023 13.2333 8.18356 13.6167 8.18356H15.3667C15.75 8.18356 16.0667 8.50023 16.0667 8.88356V11.4419H16.0583Z" fill="#6131D8"/>
</svg>
