<?xml version="1.0" encoding="utf-8"?>
<!-- Generator: Adobe Illustrator 25.4.1, SVG Export Plug-In . SVG Version: 6.00 Build 0)  -->
<svg version="1.1" id="Layer_1" xmlns="http://www.w3.org/2000/svg" xmlns:xlink="http://www.w3.org/1999/xlink" x="0px" y="0px"
	 width="40px" height="40px" viewBox="0 0 40 40" style="enable-background:new 0 0 40 40;" xml:space="preserve">
<style type="text/css">
	.st0{fill:none;stroke:url(#SVGID_1_);stroke-width:2.5;stroke-linecap:round;stroke-linejoin:round;}
	
		.st1{fill:none;stroke:url(#SVGID_00000073681389062895129450000003008889115315632778_);stroke-width:2.5;stroke-linecap:round;stroke-linejoin:round;}
	
		.st2{fill:none;stroke:url(#SVGID_00000153668866818975692920000005087136324622011289_);stroke-width:2.5;stroke-linecap:round;stroke-linejoin:round;}
	
		.st3{fill:none;stroke:url(#SVGID_00000110469829921162420070000015419685196875063443_);stroke-width:2.5;stroke-linecap:round;stroke-linejoin:round;}
	
		.st4{fill:none;stroke:url(#SVGID_00000165195630200822682480000001992468026264120961_);stroke-width:2.5;stroke-linecap:round;stroke-linejoin:round;}
</style>
<linearGradient id="SVGID_1_" gradientUnits="userSpaceOnUse" x1="21.7789211" y1="1061.388916" x2="37.0583229" y2="1062.2629395" gradientTransform="matrix(1 0 0 1 0 -1038)">
	<stop  offset="0" style="stop-color:#6031D9"/>
	<stop  offset="1" style="stop-color:#A761FF"/>
</linearGradient>
<path class="st0" d="M13.3334999,36.6666985h13.3332996c6.6999989,0,7.8999996-2.6833992,8.2500019-5.9499989l1.25-13.3333988
	C36.6167984,13.3167,35.4500999,10,28.3334999,10H11.6667995c-7.1166797,0-8.28335,3.3167-7.8333492,7.3833008l1.25,13.3333988
	C5.4334502,33.9832993,6.63345,36.6666985,13.3334999,36.6666985z"/>
<linearGradient id="SVGID_00000042718217653496071890000014289015177659359622_" gradientUnits="userSpaceOnUse" x1="20.7043324" y1="1044.949585" x2="26.937933" y2="1045.534668" gradientTransform="matrix(1 0 0 1 0 -1038)">
	<stop  offset="0" style="stop-color:#6031D9"/>
	<stop  offset="1" style="stop-color:#A761FF"/>
</linearGradient>
<path style="fill:none;stroke:url(#SVGID_00000042718217653496071890000014289015177659359622_);stroke-width:2.5;stroke-linecap:round;stroke-linejoin:round;" d="
	M13.3332996,9.9999199V8.6665802c0-2.9500003,0-5.3333302,5.3332996-5.3333302h2.6667004
	c5.3332996,0,5.3332996,2.3833299,5.3332996,5.3333302v1.3333397"/>
<linearGradient id="SVGID_00000010279242510815268680000014597015145639614898_" gradientUnits="userSpaceOnUse" x1="20.3669071" y1="1061.3044434" x2="23.5043068" y2="1061.4516602" gradientTransform="matrix(1 0 0 1 0 -1038)">
	<stop  offset="0" style="stop-color:#6031D9"/>
	<stop  offset="1" style="stop-color:#A761FF"/>
</linearGradient>
<path style="fill:none;stroke:url(#SVGID_00000010279242510815268680000014597015145639614898_);stroke-width:2.5;stroke-linecap:round;stroke-linejoin:round;" d="
	M23.3334007,21.6667004v1.6665993c0,0.0167007,0,0.0167007,0,0.0333996c0,1.8166008-0.0167007,3.3000011-3.3333015,3.3000011
	c-3.2999992,0-3.3333988-1.4666996-3.3333988-3.2833996v-1.7166004C16.6667004,20,16.6667004,20,18.3334007,20h3.3332996
	C23.3334007,20,23.3334007,20,23.3334007,21.6667004z"/>
<linearGradient id="SVGID_00000170960949140402996270000004136214927027814062_" gradientUnits="userSpaceOnUse" x1="30.3975315" y1="1058.9318848" x2="36.3270302" y2="1059.6368408" gradientTransform="matrix(1 0 0 1 0 -1038)">
	<stop  offset="0" style="stop-color:#6031D9"/>
	<stop  offset="1" style="stop-color:#A761FF"/>
</linearGradient>
<path style="fill:none;stroke:url(#SVGID_00000170960949140402996270000004136214927027814062_);stroke-width:2.5;stroke-linecap:round;stroke-linejoin:round;" d="
	M36.0833015,18.3332996c-3.8500023,2.8000011-8.2500019,4.4666004-12.7500019,5.0333004"/>
<linearGradient id="SVGID_00000119808705796876390800000011567326949347291818_" gradientUnits="userSpaceOnUse" x1="11.1804934" y1="1059.1678467" x2="16.891592" y2="1059.8846436" gradientTransform="matrix(1 0 0 1 0 -1038)">
	<stop  offset="0" style="stop-color:#6031D9"/>
	<stop  offset="1" style="stop-color:#A761FF"/>
</linearGradient>
<path style="fill:none;stroke:url(#SVGID_00000119808705796876390800000011567326949347291818_);stroke-width:2.5;stroke-linecap:round;stroke-linejoin:round;" d="
	M4.3667002,18.7833996c3.75,2.5667,7.9833002,4.1167011,12.3000002,4.6000004"/>
</svg>
