<svg width="22" height="22" viewBox="0 0 22 22" fill="none" xmlns="http://www.w3.org/2000/svg">
<g opacity="0.6">
<path d="M18.3333 10.0833C18.3333 11.715 17.8494 13.3101 16.9429 14.6668C16.0364 16.0235 14.7479 17.0809 13.2404 17.7053C11.7329 18.3298 10.0741 18.4931 8.47376 18.1748C6.87342 17.8565 5.40341 17.0707 4.24962 15.917C3.09584 14.7632 2.31011 13.2932 1.99178 11.6928C1.67345 10.0925 1.83683 8.43369 2.46125 6.9262C3.08567 5.4187 4.1431 4.13023 5.4998 3.22371C6.85651 2.31719 8.45156 1.83333 10.0833 1.83333" stroke="#130A29" stroke-width="1.5" stroke-linecap="round" stroke-linejoin="round"/>
<path d="M17.3526 18.9658C17.8384 20.4325 18.9476 20.5792 19.8001 19.2958C20.5792 18.1225 20.0659 17.16 18.6542 17.16C18.4301 17.1384 18.2042 17.1759 17.9991 17.2687C17.7939 17.3616 17.6167 17.5066 17.485 17.6893C17.3533 17.8719 17.2718 18.0859 17.2486 18.3099C17.2253 18.5339 17.2612 18.76 17.3526 18.9658V18.9658Z" stroke="#130A29" stroke-width="1.5" stroke-linecap="round" stroke-linejoin="round"/>
<path d="M12.8333 4.58333H18.3333" stroke="#130A29" stroke-width="1.5" stroke-linecap="round" stroke-linejoin="round"/>
<path d="M12.8333 7.33333H15.5833" stroke="#130A29" stroke-width="1.5" stroke-linecap="round" stroke-linejoin="round"/>
</g>
</svg>
