<svg width="20" height="21" viewBox="0 0 20 21" fill="none" xmlns="http://www.w3.org/2000/svg">
<path d="M18.3084 15.3231C18.3084 15.6206 18.2417 15.9263 18.1001 16.2238C17.9584 16.5213 17.7751 16.8023 17.5334 17.0667C17.1251 17.513 16.6751 17.8353 16.1667 18.0419C15.6667 18.2485 15.1251 18.3559 14.5417 18.3559C13.6917 18.3559 12.7834 18.1576 11.8251 17.7526C10.8667 17.3477 9.90842 16.8023 8.95842 16.1164C8.00008 15.4222 7.09175 14.6537 6.22508 13.8025C5.36675 12.9431 4.59175 12.0423 3.90008 11.1002C3.21675 10.1581 2.66675 9.21604 2.26675 8.28222C1.86675 7.34014 1.66675 6.43937 1.66675 5.57993C1.66675 5.01799 1.76675 4.48083 1.96675 3.985C2.16675 3.4809 2.48341 3.01812 2.92508 2.60493C3.45841 2.08431 4.04175 1.82812 4.65841 1.82812C4.89175 1.82812 5.12508 1.87771 5.33341 1.97688C5.55008 2.07604 5.74175 2.22479 5.89175 2.43965L7.82508 5.14194C7.97508 5.34854 8.08341 5.53861 8.15841 5.72042C8.23341 5.89396 8.27508 6.0675 8.27508 6.22451C8.27508 6.42285 8.21675 6.62118 8.10008 6.81125C7.99175 7.00132 7.83341 7.19965 7.63341 7.39799L7.00008 8.05083C6.90841 8.14174 6.86675 8.24917 6.86675 8.38139C6.86675 8.4475 6.87508 8.50535 6.89175 8.57146C6.91675 8.63757 6.94175 8.68715 6.95842 8.73674C7.10842 9.00944 7.36675 9.36479 7.73341 9.79451C8.10841 10.2242 8.50841 10.6622 8.94175 11.1002C9.39175 11.5382 9.82508 11.9431 10.2667 12.315C10.7001 12.6786 11.0584 12.9265 11.3417 13.0753C11.3834 13.0918 11.4334 13.1166 11.4917 13.1414C11.5584 13.1662 11.6251 13.1744 11.7001 13.1744C11.8417 13.1744 11.9501 13.1249 12.0417 13.034L12.6751 12.4142C12.8834 12.2076 13.0834 12.0506 13.2751 11.9514C13.4667 11.8357 13.6584 11.7778 13.8667 11.7778C14.0251 11.7778 14.1917 11.8109 14.3751 11.8853C14.5584 11.9597 14.7501 12.0671 14.9584 12.2076L17.7167 14.1496C17.9334 14.2983 18.0834 14.4719 18.1751 14.6785C18.2584 14.8851 18.3084 15.0917 18.3084 15.3231Z" stroke="white" stroke-width="2" stroke-miterlimit="10"/>
<path d="M13.5 6.62096H17.5M13.5 6.62096V2.6543V6.62096Z" stroke="white" stroke-width="2" stroke-linecap="round" stroke-linejoin="round"/>
</svg>
