<svg width="60" height="60" viewBox="0 0 60 60" fill="none" xmlns="http://www.w3.org/2000/svg">
<path d="M25.1248 6.32497L10.0748 16.15C5.2498 19.3 5.2498 26.35 10.0748 29.5L25.1248 39.325C27.8248 41.1 32.2748 41.1 34.9748 39.325L49.9498 29.5C54.7498 26.35 54.7498 19.325 49.9498 16.175L34.9748 6.34997C32.2748 4.54997 27.8248 4.54997 25.1248 6.32497Z" stroke="url(#paint0_linear_531_14)" stroke-width="4" stroke-linecap="round" stroke-linejoin="round"/>
<path d="M14.0748 32.7L14.0498 44.425C14.0498 47.6 16.4998 50.9999 19.4998 51.9999L27.4748 54.65C28.8498 55.1 31.1248 55.1 32.5248 54.65L40.4998 51.9999C43.4998 50.9999 45.9498 47.6 45.9498 44.425V32.825" stroke="url(#paint1_linear_531_14)" stroke-width="4" stroke-linecap="round" stroke-linejoin="round"/>
<path d="M53.5 37.5V22.5" stroke="url(#paint2_linear_531_14)" stroke-width="4" stroke-linecap="round" stroke-linejoin="round"/>
<defs>
<linearGradient id="paint0_linear_531_14" x1="32.5026" y1="24.1543" x2="54.6287" y2="25.5256" gradientUnits="userSpaceOnUse">
<stop stop-color="#6031D9"/>
<stop offset="1" stop-color="#A761FF"/>
</linearGradient>
<linearGradient id="paint1_linear_531_14" x1="31.693" y1="44.6736" x2="46.6706" y2="45.6796" gradientUnits="userSpaceOnUse">
<stop stop-color="#6031D9"/>
<stop offset="1" stop-color="#A761FF"/>
</linearGradient>
<linearGradient id="paint2_linear_531_14" x1="54.0531" y1="30.5585" x2="54.5247" y2="30.56" gradientUnits="userSpaceOnUse">
<stop stop-color="#6031D9"/>
<stop offset="1" stop-color="#A761FF"/>
</linearGradient>
</defs>
</svg>
