<svg width="20" height="20" viewBox="0 0 20 20" fill="none" xmlns="http://www.w3.org/2000/svg">
<path d="M13.4922 1.66714H6.50924C5.85818 1.60621 5.2017 1.68961 4.58656 1.9114C3.97143 2.13319 3.41277 2.48791 2.95039 2.95029C2.48801 3.41266 2.13329 3.97132 1.91151 4.58646C1.68972 5.2016 1.60631 5.85808 1.66724 6.50914V13.4841C1.6056 14.1357 1.68845 14.7929 1.90987 15.4087C2.13129 16.0246 2.48584 16.5841 2.94824 17.0473C3.41064 17.5104 3.96952 17.8659 4.58504 18.0883C5.20056 18.3108 5.85757 18.3947 6.50924 18.3341H13.4842C14.1353 18.3951 14.7918 18.3117 15.4069 18.0899C16.0221 17.8681 16.5807 17.5134 17.0431 17.051C17.5055 16.5886 17.8602 16.0299 18.082 15.4148C18.3038 14.7997 18.3872 14.1432 18.3262 13.4921V6.50914C18.3888 5.85842 18.3068 5.20191 18.0861 4.58657C17.8654 3.97123 17.5115 3.41226 17.0496 2.94962C16.5878 2.48699 16.0294 2.13213 15.4144 1.91043C14.7994 1.68872 14.1431 1.60564 13.4922 1.66714ZM14.3842 8.30014L12.4592 10.7841C12.3423 10.937 12.1957 11.0645 12.0281 11.159C11.8605 11.2536 11.6755 11.3131 11.4842 11.3341C11.2928 11.359 11.0984 11.3453 10.9124 11.2937C10.7264 11.2422 10.5526 11.1539 10.4012 11.0341L8.87624 9.83414C8.85496 9.81536 8.82961 9.8018 8.80219 9.79451C8.77477 9.78722 8.74603 9.78641 8.71824 9.79214C8.68977 9.79408 8.66214 9.80259 8.63751 9.81699C8.61287 9.83138 8.59191 9.85129 8.57624 9.87514L6.59224 12.4501C6.53392 12.5251 6.45933 12.5858 6.37409 12.6278C6.28886 12.6697 6.19522 12.6917 6.10024 12.6921C5.96118 12.6925 5.82613 12.6456 5.71724 12.5591C5.65208 12.5094 5.59736 12.4473 5.55621 12.3764C5.51507 12.3055 5.48829 12.2271 5.47743 12.1459C5.46656 12.0646 5.47182 11.982 5.49289 11.9028C5.51396 11.8236 5.55044 11.7493 5.60024 11.6841L7.58424 9.10914C7.70189 8.95633 7.84864 8.82835 8.01603 8.73258C8.18341 8.63682 8.36811 8.57516 8.55946 8.55117C8.75081 8.52718 8.94502 8.54134 9.13086 8.59282C9.31671 8.64431 9.49051 8.7321 9.64224 8.85114L11.1672 10.0501C11.1883 10.0693 11.2136 10.083 11.2411 10.0903C11.2686 10.0977 11.2975 10.0983 11.3252 10.0921C11.3537 10.0902 11.3813 10.0817 11.406 10.0673C11.4306 10.0529 11.4516 10.033 11.4672 10.0091L13.3922 7.52614C13.4419 7.46069 13.5042 7.40584 13.5754 7.36481C13.6466 7.32379 13.7252 7.29743 13.8068 7.28727C13.8883 7.27711 13.9711 7.28337 14.0501 7.30567C14.1292 7.32798 14.203 7.36587 14.2672 7.41714C14.3983 7.51984 14.4839 7.66975 14.5057 7.83479C14.5276 7.99982 14.484 8.16685 14.3842 8.30014Z" fill="#6131D8"/>
</svg>
