<svg width="60" height="60" viewBox="0 0 60 60" fill="none" xmlns="http://www.w3.org/2000/svg">
<path d="M30 20V32.5" stroke="url(#paint0_linear_681_1530)" stroke-width="4" stroke-linecap="round" stroke-linejoin="round"/>
<path d="M30 55C17.925 55 8.125 45.2 8.125 33.125C8.125 21.05 17.925 11.25 30 11.25C42.075 11.25 51.875 21.05 51.875 33.125" stroke="url(#paint1_linear_681_1530)" stroke-width="4" stroke-linecap="round" stroke-linejoin="round"/>
<path d="M22.5 5H37.5" stroke="url(#paint2_linear_681_1530)" stroke-width="4" stroke-linecap="round" stroke-linejoin="round"/>
<path d="M37.25 46.25V43.35C37.25 39.775 39.8 38.3 42.9 40.1L45.4 41.55L47.9 43C51 44.8 51 47.725 47.9 49.525L45.4 50.975L42.9 52.425C39.8 54.225 37.25 52.75 37.25 49.175V46.25Z" stroke="url(#paint3_linear_681_1530)" stroke-width="4" stroke-linecap="round" stroke-linejoin="round"/>
<defs>
<linearGradient id="paint0_linear_681_1530" x1="30.5531" y1="26.7154" x2="31.0247" y2="26.7172" gradientUnits="userSpaceOnUse">
<stop stop-color="#6031D9"/>
<stop offset="1" stop-color="#A761FF"/>
</linearGradient>
<linearGradient id="paint1_linear_681_1530" x1="32.3222" y1="34.754" x2="52.9109" y2="35.7202" gradientUnits="userSpaceOnUse">
<stop stop-color="#6031D9"/>
<stop offset="1" stop-color="#A761FF"/>
</linearGradient>
<linearGradient id="paint2_linear_681_1530" x1="30.7962" y1="5.53723" x2="35.5265" y2="8.86722" gradientUnits="userSpaceOnUse">
<stop stop-color="#6031D9"/>
<stop offset="1" stop-color="#A761FF"/>
</linearGradient>
<linearGradient id="paint3_linear_681_1530" x1="44.4262" y1="46.7786" x2="50.5339" y2="47.0469" gradientUnits="userSpaceOnUse">
<stop stop-color="#6031D9"/>
<stop offset="1" stop-color="#A761FF"/>
</linearGradient>
</defs>
</svg>
