<svg width="20" height="20" viewBox="0 0 20 20" fill="none" xmlns="http://www.w3.org/2000/svg">
<path d="M16.1414 4.0751L11.2581 1.9001C10.5414 1.58343 9.45807 1.58343 8.74141 1.9001L3.85807 4.0751C2.62474 4.6251 2.44141 5.3751 2.44141 5.7751C2.44141 6.1751 2.62474 6.9251 3.85807 7.4751L8.74141 9.6501C9.09974 9.80843 9.54974 9.89176 9.99974 9.89176C10.4497 9.89176 10.8997 9.80843 11.2581 9.6501L16.1414 7.4751C17.3747 6.9251 17.5581 6.1751 17.5581 5.7751C17.5581 5.3751 17.3831 4.6251 16.1414 4.0751Z" fill="#6131D8"/>
<path d="M10.0003 14.1998C9.68359 14.1998 9.36693 14.1332 9.07526 14.0082L3.45859 11.5082C2.60026 11.1248 1.93359 10.0998 1.93359 9.15817C1.93359 8.8165 2.20859 8.5415 2.55026 8.5415C2.89193 8.5415 3.16693 8.8165 3.16693 9.15817C3.16693 9.60817 3.54193 10.1915 3.95859 10.3748L9.57526 12.8748C9.84193 12.9915 10.1503 12.9915 10.4169 12.8748L16.0336 10.3748C16.4503 10.1915 16.8253 9.6165 16.8253 9.15817C16.8253 8.8165 17.1003 8.5415 17.4419 8.5415C17.7836 8.5415 18.0586 8.8165 18.0586 9.15817C18.0586 10.0915 17.3919 11.1248 16.5336 11.5082L10.9169 14.0082C10.6336 14.1332 10.3169 14.1998 10.0003 14.1998Z" fill="#6131D8"/>
<path d="M10.0003 18.3331C9.68359 18.3331 9.36693 18.2665 9.07526 18.1415L3.45859 15.6415C2.53359 15.2331 1.93359 14.3081 1.93359 13.2915C1.93359 12.9498 2.20859 12.6748 2.55026 12.6748C2.89193 12.6748 3.16693 12.9498 3.16693 13.2915C3.16693 13.8165 3.47526 14.2915 3.95859 14.5081L9.57526 17.0081C9.84193 17.1248 10.1503 17.1248 10.4169 17.0081L16.0336 14.5081C16.5086 14.2998 16.8253 13.8165 16.8253 13.2915C16.8253 12.9498 17.1003 12.6748 17.4419 12.6748C17.7836 12.6748 18.0586 12.9498 18.0586 13.2915C18.0586 14.3081 17.4586 15.2248 16.5336 15.6415L10.9169 18.1415C10.6336 18.2665 10.3169 18.3331 10.0003 18.3331Z" fill="#6131D8"/>
</svg>
