<svg width="40" height="40" viewBox="0 0 40 40" fill="none" xmlns="http://www.w3.org/2000/svg">
<path d="M31.7666 31.1166L28.2 24L24.6333 31.1166" stroke="url(#paint0_linear_451_1314)" stroke-width="2.5" stroke-linecap="round" stroke-linejoin="round"/>
<path d="M25.2834 29.8499H31.1501" stroke="url(#paint1_linear_451_1314)" stroke-width="2.5" stroke-linecap="round" stroke-linejoin="round"/>
<path d="M28.2001 36.6667C23.5334 36.6667 19.7334 32.8833 19.7334 28.2C19.7334 23.5333 23.5167 19.7334 28.2001 19.7334C32.8667 19.7334 36.6667 23.5167 36.6667 28.2C36.6667 32.8833 32.8834 36.6667 28.2001 36.6667Z" stroke="url(#paint2_linear_451_1314)" stroke-width="2.5" stroke-linecap="round" stroke-linejoin="round"/>
<path d="M8.36659 3.33325H14.8999C18.3499 3.33325 20.0166 4.99995 19.9333 8.36662V14.8999C20.0166 18.3499 18.3499 20.0166 14.8999 19.9333H8.36659C4.99993 20 3.33325 18.3332 3.33325 14.8832V8.34993C3.33325 4.99993 4.99993 3.33325 8.36659 3.33325Z" stroke="url(#paint3_linear_451_1314)" stroke-width="2.5" stroke-linecap="round" stroke-linejoin="round"/>
<path d="M15.0167 9.75H8.25" stroke="url(#paint4_linear_451_1314)" stroke-width="2.5" stroke-linecap="round" stroke-linejoin="round"/>
<path d="M11.6167 8.6167V9.75002" stroke="url(#paint5_linear_451_1314)" stroke-width="2.5" stroke-linecap="round" stroke-linejoin="round"/>
<path d="M13.3167 9.7334C13.3167 12.6501 11.0334 15.0167 8.2334 15.0167" stroke="url(#paint6_linear_451_1314)" stroke-width="2.5" stroke-linecap="round" stroke-linejoin="round"/>
<path d="M15.0167 15.0168C13.8 15.0168 12.7 14.3668 11.9333 13.3335" stroke="url(#paint7_linear_451_1314)" stroke-width="2.5" stroke-linecap="round" stroke-linejoin="round"/>
<path d="M3.33325 25C3.33325 31.45 8.54992 36.6667 14.9999 36.6667L13.2499 33.75" stroke="url(#paint8_linear_451_1314)" stroke-width="2.5" stroke-linecap="round" stroke-linejoin="round"/>
<path d="M36.6667 14.9999C36.6667 8.54992 31.45 3.33325 25 3.33325L26.75 6.24992" stroke="url(#paint9_linear_451_1314)" stroke-width="2.5" stroke-linecap="round" stroke-linejoin="round"/>
<defs>
<linearGradient id="paint0_linear_451_1314" x1="28.5786" y1="27.8233" x2="31.9355" y2="27.9812" gradientUnits="userSpaceOnUse">
<stop stop-color="#6031D9"/>
<stop offset="1" stop-color="#A761FF"/>
</linearGradient>
<linearGradient id="paint1_linear_451_1314" x1="28.5282" y1="30.3871" x2="31.1001" y2="31.0952" gradientUnits="userSpaceOnUse">
<stop stop-color="#6031D9"/>
<stop offset="1" stop-color="#A761FF"/>
</linearGradient>
<linearGradient id="paint2_linear_451_1314" x1="29.0989" y1="28.8305" x2="37.0677" y2="29.2045" gradientUnits="userSpaceOnUse">
<stop stop-color="#6031D9"/>
<stop offset="1" stop-color="#A761FF"/>
</linearGradient>
<linearGradient id="paint3_linear_451_1314" x1="12.516" y1="12.253" x2="20.3293" y2="12.6196" gradientUnits="userSpaceOnUse">
<stop stop-color="#6031D9"/>
<stop offset="1" stop-color="#A761FF"/>
</linearGradient>
<linearGradient id="paint4_linear_451_1314" x1="11.9925" y1="10.2872" x2="14.8915" y2="11.2079" gradientUnits="userSpaceOnUse">
<stop stop-color="#6031D9"/>
<stop offset="1" stop-color="#A761FF"/>
</linearGradient>
<linearGradient id="paint5_linear_451_1314" x1="12.1698" y1="9.22556" x2="12.6406" y2="9.24505" gradientUnits="userSpaceOnUse">
<stop stop-color="#6031D9"/>
<stop offset="1" stop-color="#A761FF"/>
</linearGradient>
<linearGradient id="paint6_linear_451_1314" x1="11.0449" y1="12.5718" x2="13.4375" y2="12.6798" gradientUnits="userSpaceOnUse">
<stop stop-color="#6031D9"/>
<stop offset="1" stop-color="#A761FF"/>
</linearGradient>
<linearGradient id="paint7_linear_451_1314" x1="13.6387" y1="14.2378" x2="15.0822" y2="14.3619" gradientUnits="userSpaceOnUse">
<stop stop-color="#6031D9"/>
<stop offset="1" stop-color="#A761FF"/>
</linearGradient>
<linearGradient id="paint8_linear_451_1314" x1="9.78583" y1="31.2677" x2="15.2762" y2="31.5254" gradientUnits="userSpaceOnUse">
<stop stop-color="#6031D9"/>
<stop offset="1" stop-color="#A761FF"/>
</linearGradient>
<linearGradient id="paint9_linear_451_1314" x1="31.4526" y1="9.60098" x2="36.9429" y2="9.85865" gradientUnits="userSpaceOnUse">
<stop stop-color="#6031D9"/>
<stop offset="1" stop-color="#A761FF"/>
</linearGradient>
</defs>
</svg>
