<svg width="24" height="24" viewBox="0 0 24 24" fill="none" xmlns="http://www.w3.org/2000/svg">
<path d="M10.8389 2H8.9357C4.17764 2 2.27441 4 2.27441 9V15C2.27441 20 4.17764 22 8.9357 22H14.6454C19.4034 22 21.3067 20 21.3067 15V13" stroke="#130A29" stroke-width="2" stroke-linecap="round" stroke-linejoin="round"/>
<path d="M15.6351 3.01976L8.13639 10.8998C7.85091 11.1998 7.56542 11.7898 7.50833 12.2198L7.09913 15.2298C6.94688 16.3198 7.67962 17.0798 8.71688 16.9298L11.5812 16.4998C11.9809 16.4398 12.5424 16.1398 12.8374 15.8398L20.3361 7.95977C21.6303 6.59977 22.2393 5.01976 20.3361 3.01976C18.4328 1.01976 16.9293 1.65976 15.6351 3.01976Z" stroke="#130A29" stroke-width="2" stroke-miterlimit="10" stroke-linecap="round" stroke-linejoin="round"/>
<path d="M14.5596 4.1499C15.1972 6.5399 16.9767 8.4099 19.2605 9.0899" stroke="#130A29" stroke-width="2" stroke-miterlimit="10" stroke-linecap="round" stroke-linejoin="round"/>
</svg>
