<svg width="40" height="40" viewBox="0 0 40 40" fill="none" xmlns="http://www.w3.org/2000/svg">
<path d="M36.6666 24.9999V14.9999C36.6666 6.66659 33.3333 3.33325 24.9999 3.33325H14.9999C6.66659 3.33325 3.33325 6.66659 3.33325 14.9999V24.9999C3.33325 33.3333 6.66659 36.6666 14.9999 36.6666H24.9999C33.3333 36.6666 36.6666 33.3333 36.6666 24.9999Z" stroke="url(#paint0_linear_451_368)" stroke-width="2.5" stroke-linecap="round" stroke-linejoin="round"/>
<path d="M4.19995 11.8501H35.7999" stroke="url(#paint1_linear_451_368)" stroke-width="2.5" stroke-linecap="round" stroke-linejoin="round"/>
<path d="M14.2 3.5166V11.6166" stroke="url(#paint2_linear_451_368)" stroke-width="2.5" stroke-linecap="round" stroke-linejoin="round"/>
<path d="M25.8 3.5166V10.8666" stroke="url(#paint3_linear_451_368)" stroke-width="2.5" stroke-linecap="round" stroke-linejoin="round"/>
<path d="M16.25 24.0834V22.0834C16.25 19.5168 18.0667 18.4668 20.2833 19.7501L22.0167 20.7501L23.75 21.7501C25.9667 23.0334 25.9667 25.1334 23.75 26.4168L22.0167 27.4168L20.2833 28.4168C18.0667 29.7001 16.25 28.6501 16.25 26.0834V24.0834V24.0834Z" stroke="url(#paint4_linear_451_368)" stroke-width="2.5" stroke-miterlimit="10" stroke-linecap="round" stroke-linejoin="round"/>
<defs>
<linearGradient id="paint0_linear_451_368" x1="21.7692" y1="21.2411" x2="37.4558" y2="21.9772" gradientUnits="userSpaceOnUse">
<stop stop-color="#6031D9"/>
<stop offset="1" stop-color="#A761FF"/>
</linearGradient>
<linearGradient id="paint1_linear_451_368" x1="21.6772" y1="12.3873" x2="26.3356" y2="19.2958" gradientUnits="userSpaceOnUse">
<stop stop-color="#6031D9"/>
<stop offset="1" stop-color="#A761FF"/>
</linearGradient>
<linearGradient id="paint2_linear_451_368" x1="14.753" y1="7.8682" x2="15.2246" y2="7.87093" gradientUnits="userSpaceOnUse">
<stop stop-color="#6031D9"/>
<stop offset="1" stop-color="#A761FF"/>
</linearGradient>
<linearGradient id="paint3_linear_451_368" x1="26.3531" y1="7.46527" x2="26.8247" y2="7.46828" gradientUnits="userSpaceOnUse">
<stop stop-color="#6031D9"/>
<stop offset="1" stop-color="#A761FF"/>
</linearGradient>
<linearGradient id="paint4_linear_451_368" x1="21.3176" y1="24.4469" x2="25.6306" y2="24.6369" gradientUnits="userSpaceOnUse">
<stop stop-color="#6031D9"/>
<stop offset="1" stop-color="#A761FF"/>
</linearGradient>
</defs>
</svg>
