<svg width="60" height="60" viewBox="0 0 60 60" fill="none" xmlns="http://www.w3.org/2000/svg">
<path d="M20.0001 55H40.0001C50.0501 55 51.8501 50.975 52.3751 46.075L54.2501 26.075C54.9251 19.975 53.175 15 42.5001 15H17.5001C6.82506 15 5.07505 19.975 5.75005 26.075L7.62505 46.075C8.15005 50.975 9.95006 55 20.0001 55Z" stroke="url(#paint0_linear_531_976)" stroke-width="4" stroke-linecap="round" stroke-linejoin="round"/>
<path d="M20 15V13C20 8.575 20 5 28 5H32C40 5 40 8.575 40 13V15" stroke="url(#paint1_linear_531_976)" stroke-width="4" stroke-linecap="round" stroke-linejoin="round"/>
<path d="M35 32.5V35C35 35.025 35 35.025 35 35.05C35 37.775 34.975 40 30 40C25.05 40 25 37.8 25 35.075V32.5C25 30 25 30 27.5 30H32.5C35 30 35 30 35 32.5Z" stroke="url(#paint2_linear_531_976)" stroke-width="4" stroke-linecap="round" stroke-linejoin="round"/>
<path d="M54.125 27.5C48.35 31.7 41.75 34.2 35 35.05" stroke="url(#paint3_linear_531_976)" stroke-width="4" stroke-linecap="round" stroke-linejoin="round"/>
<path d="M6.5498 28.175C12.1748 32.025 18.5248 34.35 24.9998 35.075" stroke="url(#paint4_linear_531_976)" stroke-width="4" stroke-linecap="round" stroke-linejoin="round"/>
<defs>
<linearGradient id="paint0_linear_531_976" x1="32.5878" y1="36.4894" x2="55.507" y2="37.8004" gradientUnits="userSpaceOnUse">
<stop stop-color="#6031D9"/>
<stop offset="1" stop-color="#A761FF"/>
</linearGradient>
<linearGradient id="paint1_linear_531_976" x1="31.0616" y1="10.3723" x2="40.4119" y2="11.25" gradientUnits="userSpaceOnUse">
<stop stop-color="#6031D9"/>
<stop offset="1" stop-color="#A761FF"/>
</linearGradient>
<linearGradient id="paint2_linear_531_976" x1="30.5308" y1="35.3723" x2="35.2368" y2="35.5932" gradientUnits="userSpaceOnUse">
<stop stop-color="#6031D9"/>
<stop offset="1" stop-color="#A761FF"/>
</linearGradient>
<linearGradient id="paint3_linear_531_976" x1="45.5776" y1="31.5561" x2="54.4719" y2="32.6135" gradientUnits="userSpaceOnUse">
<stop stop-color="#6031D9"/>
<stop offset="1" stop-color="#A761FF"/>
</linearGradient>
<linearGradient id="paint4_linear_531_976" x1="16.7541" y1="31.882" x2="25.3209" y2="32.957" gradientUnits="userSpaceOnUse">
<stop stop-color="#6031D9"/>
<stop offset="1" stop-color="#A761FF"/>
</linearGradient>
</defs>
</svg>
