<svg width="20" height="20" viewBox="0 0 20 20" fill="none" xmlns="http://www.w3.org/2000/svg">
<path d="M17.4667 14.8667L16.1084 15.3251C15.7334 15.4501 15.4334 15.7417 15.3084 16.1251L14.8501 17.4834C14.4584 18.6584 12.8084 18.6334 12.4417 17.4584L10.9001 12.5001C10.6001 11.5167 11.5084 10.6001 12.4834 10.9084L17.4501 12.4501C18.6167 12.8167 18.6334 14.4751 17.4667 14.8667Z" fill="#6131D8"/>
<path d="M17.5002 9.5835C17.5002 9.94183 17.4752 10.3002 17.4335 10.6502C17.4002 10.9002 17.1418 11.0502 16.9002 10.9752L12.8585 9.71683C11.9585 9.44183 11.0002 9.67517 10.3335 10.3335C9.66683 11.0002 9.42517 11.9752 9.7085 12.8752L10.9585 16.9002C11.0335 17.1418 10.8752 17.4002 10.6252 17.4335C10.2752 17.4752 9.9335 17.5002 9.5835 17.5002C5.1335 17.5002 1.55017 13.8418 1.66683 9.3585C1.7835 5.22517 5.22517 1.7835 9.3585 1.66683C13.8418 1.55017 17.5002 5.1335 17.5002 9.5835Z" fill="#6131D8"/>
</svg>
