<svg width="20" height="20" viewBox="0 0 20 20" fill="none" xmlns="http://www.w3.org/2000/svg">
<g opacity="0.8" clip-path="url(#clip0_642_2173)">
<path d="M16.1161 12.0751L15.2831 10.6921C15.0877 10.3087 14.9743 9.88877 14.9501 9.45911V7.35011C14.949 6.42016 14.6846 5.50952 14.1875 4.72358C13.6904 3.93765 12.9809 3.30856 12.1411 2.90911C11.9269 2.52863 11.6145 2.21264 11.2365 1.99416C10.8584 1.77569 10.4287 1.66274 9.99208 1.66711C9.55191 1.66649 9.11958 1.78364 8.73994 2.00643C8.36031 2.22922 8.04719 2.54952 7.83308 2.93411C7.00915 3.34161 6.31525 3.9709 5.82943 4.75122C5.34361 5.53154 5.08514 6.43192 5.08308 7.35111V9.45911C5.06007 9.88642 4.94656 10.304 4.75008 10.6841L3.90808 12.0751C3.74042 12.3304 3.63515 12.6216 3.60076 12.9251C3.56638 13.2286 3.60384 13.5359 3.71012 13.8223C3.81641 14.1086 3.98854 14.3659 4.21262 14.5735C4.4367 14.7811 4.70645 14.933 5.00008 15.0171C6.61644 15.5622 8.31131 15.8382 10.0171 15.8341C11.722 15.8371 13.4163 15.5642 15.0341 15.0261C15.3205 14.9307 15.5818 14.772 15.7985 14.5618C16.0152 14.3516 16.1817 14.0952 16.2857 13.8118C16.3898 13.5284 16.4287 13.2252 16.3995 12.9247C16.3703 12.6242 16.2737 12.3342 16.1171 12.0761L16.1161 12.0751Z" fill="#130A29"/>
<path d="M12.3579 16.675C12.1827 17.1602 11.8625 17.5797 11.4406 17.8765C11.0187 18.1733 10.5157 18.333 9.9999 18.334C9.6708 18.3342 9.34497 18.2687 9.04154 18.1413C8.7381 18.0139 8.46318 17.8271 8.2329 17.592C7.96704 17.335 7.76706 17.0177 7.6499 16.667C7.7579 16.684 7.8669 16.692 7.9829 16.709C8.1749 16.734 8.3749 16.759 8.5749 16.776C9.0499 16.817 9.5329 16.842 10.0169 16.842C10.5009 16.842 10.9669 16.817 11.4329 16.775C11.6079 16.758 11.7829 16.75 11.9499 16.725L12.3579 16.675Z" fill="#130A29"/>
</g>
<defs>
<clipPath id="clip0_642_2173">
<rect width="20" height="20" fill="white"/>
</clipPath>
</defs>
</svg>
