<?xml version="1.0" encoding="utf-8"?>
<!-- Generator: Adobe Illustrator 25.4.1, SVG Export Plug-In . SVG Version: 6.00 Build 0)  -->
<svg version="1.1" id="Layer_1" xmlns="http://www.w3.org/2000/svg" xmlns:xlink="http://www.w3.org/1999/xlink" x="0px" y="0px"
	 width="149px" height="25px" viewBox="0 0 149 25" style="enable-background:new 0 0 149 25;" xml:space="preserve">
<style type="text/css">
	.st0{fill:#6131D8;}
</style>
<path class="st0" d="M16.8880005,16.8640003c-1.184,1.7919998-3.2000008,3.039999-5.5040007,3.039999
	c-3.6799998,0-6.368-3.0719986-6.368-6.8799992C5.0159998,9.184,7.704,6.112,11.3839998,6.112
	c2.3039999,0,4.1920004,1.1199999,5.3760004,2.8799996L20.5680008,6.368C18.6480007,3.552,15.3520002,1.696,11.3839998,1.696
	C5.112,1.696,0.312,6.7839999,0.312,13.0240002c0,6.2080002,4.8000002,11.2959995,11.0719995,11.2959995
	c4,0,7.3599997-1.8880005,9.2799997-4.8319988L16.8880005,16.8640003z M34.4949989,24h4.4160004V9.0559998h-4.4160004v1.6640005
	c-1.2159996-1.632-3.3599987-1.9840002-4.3519993-1.9840002c-3.8080006,0-7.6159992,3.0080004-7.6159992,7.7759991
	s3.8079987,7.776001,7.6159992,7.776001c1.1200008,0,3.4240017-0.5760002,4.3519993-1.9839993V24z M27.1350002,16.5119991
	c0-2.1439991,1.855999-3.5519991,3.7439995-3.5519991c1.8239994,0,3.6159992,1.3439999,3.6159992,3.5519991
	c0,2.2400017-1.7919998,3.552-3.6159992,3.552C28.9909992,20.0639992,27.1350002,18.6560001,27.1350002,16.5119991z
	 M47.4648018,18.7840004c0-3.9680004,1.1519966-5.9520006,3.711998-5.9520006c0.7360001,0,1.4720001,0.0640001,2.2719994,0.448
	l0.7999992-4c-0.7360001-0.3519993-1.5039978-0.5439997-2.5599976-0.5439997c-1.5359993,0-3.4560013,1.1519995-4.223999,3.9359999
	V9.0559998h-4.4480019V24h4.4480019V18.7840004z M66.7939987,19.0720005
	c-0.7360001,0.9919987-2.0159988,1.407999-3.2639999,1.407999c-1.5999985,0-3.4239998-0.7679996-3.6800003-2.4960003h10.9440002
	c0.0319977-0.3839989,0.064003-0.9919987,0.064003-1.3759995c0-4.7039995-3.3919983-7.8719997-7.6480026-7.8719997
	s-7.8079987,3.0080004-7.8079987,7.7439995c0,4.7040005,3.5519981,7.8400002,7.8079987,7.8400002
	c2.5599976,0,5.2799988-0.7999992,6.8160019-3.039999L66.7939987,19.0720005z M59.9140015,15.1999998
	c0.3519974-1.9200001,2.1119995-2.5599995,3.3279991-2.5599995c1.2800026,0,2.8800011,0.7360001,3.1359978,2.5599995H59.9140015z
	 M84.3878021,19.0720005c-0.7360001,0.9919987-2.0159988,1.407999-3.2639999,1.407999
	c-1.5999985,0-3.4240036-0.7679996-3.6800003-2.4960003h10.9440002c0.0319977-0.3839989,0.0639954-0.9919987,0.0639954-1.3759995
	c0-4.7039995-3.3919983-7.8719997-7.647995-7.8719997c-4.2561035,0-7.8080063,3.0080004-7.8080063,7.7439995
	c0,4.7040005,3.5519028,7.8400002,7.8080063,7.8400002c2.5599976,0,5.2799988-0.7999992,6.8159943-3.039999L84.3878021,19.0720005z
	 M77.5077972,15.1999998c0.352005-1.9200001,2.1119995-2.5599995,3.3280029-2.5599995
	c1.2799988,0,2.8799973,0.7360001,3.1360016,2.5599995H77.5077972z M95.9335022,18.7840004
	c0-3.9680004,1.1520004-5.9520006,3.711998-5.9520006c0.7365036,0,1.472496,0.0640001,2.2724991,0.448l0.8000031-4
	c-0.7360001-0.3519993-1.5040054-0.5439997-2.5600052-0.5439997c-1.536499,0-3.4564972,1.1519995-4.2244949,3.9359999V9.0559998
	h-4.4480057V24h4.4480057V18.7840004z M114.9049988,0.927999h-1.6319962c-4.3199997,0-6.7519989,2.496001-6.7519989,7.1040006
	v1.0240002h-2.8160019v3.5200005h2.8160019V24h4.4799957V12.5760002h3.0080032V9.0559998h-3.0080032V8.0319996
	c0-1.7919998,0.7360001-2.8479996,2.2720032-2.8479996h1.6319962V0.927999z M126.3990021,16.9599991
	c0,2.2720013-1.3120041,3.0400009-2.6880035,3.0400009c-1.0240021,0-2.6559982-0.5760002-2.6559982-2.9759998V9.0559998h-4.447998
	v8.9279995c0,4.2560005,2.5599976,6.3360004,5.9199982,6.3360004c1.4400024,0,3.0719986-0.8640003,3.8720016-2.368V24h4.447998
	V9.0559998h-4.447998V16.9599991z M134.9539948,0.927999V24h4.447998V0.927999H134.9539948z M143.1340027,21.632
	c0,1.5680008,1.2480011,2.6879997,2.7519989,2.6879997s2.7839966-1.1199989,2.7839966-2.6879997
	c0-1.5359993-1.2799988-2.6560001-2.7839966-2.6560001S143.1340027,20.0960007,143.1340027,21.632z"/>
</svg>
